PathFileType	4	(X/Y/Z)	30_2_52_p0_0-458_filt_butterworth.trc
DataRate	CameraRate	NumFrames	NumMarkers	Units	OrigDataRate	OrigDataStartFrame	OrigNumFrames
52.0	52.0	6	27	m	52.0	286	458
Frame#	Time	RHip			RKnee			RAnkle			RBigToe			RSmallToe			RHeel			LHip			LKnee			LAnkle			LBigToe			LSmallToe			LHeel			Neck			Head			Nose			RShoulder			RElbow			RWrist			RThumb			RIndex			RPinky			LShoulder			LElbow			LWrist			LThumb			LIndex			LPinky			
		X1	Y1	Z1	X2	Y2	Z2	X3	Y3	Z3	X4	Y4	Z4	X5	Y5	Z5	X6	Y6	Z6	X7	Y7	Z7	X8	Y8	Z8	X9	Y9	Z9	X10	Y10	Z10	X11	Y11	Z11	X12	Y12	Z12	X13	Y13	Z13	X14	Y14	Z14	X15	Y15	Z15	X16	Y16	Z16	X17	Y17	Z17	X18	Y18	Z18	X19	Y19	Z19	X20	Y20	Z20	X21	Y21	Z21	X22	Y22	Z22	X23	Y23	Z23	X24	Y24	Z24	X25	Y25	Z25	X26	Y26	Z26	X27	Y27	Z27	
286	5.5	0.2648866470895134	0.8962868613458839	0.4749776547339348	0.2985540901640348	0.499258527710251	0.5097040718484862	0.2885637832252208	0.10119230332284546	0.5833221489585882	0.26913302283378243	0.09168612096346304	0.36676531131273726	0.32436113388018684	0.0743909040532455	0.42057408220881937	0.2709009393963518	0.06092381941118381	0.6320747742290241	0.07435486860223606	0.8926860028687142	0.4706676777473434	0.07623646064362406	0.49114903599859194	0.5080413217161812	0.07180262782188643	0.11955293854700558	0.5540923978189808	0.07083237403125162	0.06810673053797696	0.40593415103752717	0.031669497875021026	0.08040950300105829	0.419173490797019	0.08888025565727802	0.06538151532721798	0.6083792008882568	0.15819736901252301	1.379027869861677	0.46990943226514775	0.18327592740246013	1.6346051829800066	0.3680371038677305	0.19082376771946546	1.479515472102383	0.3492755684301503	0.2830051994239847	1.3170422159415827	0.510404910830901	0.3394990355713011	1.1327139722631752	0.44119615748914587	0.40704338896370534	1.1621441469550362	0.21616670454171416	0.43194836580863305	1.1997246023055	0.08572991871742844	0.4423620787210341	1.2021529541423033	0.061033581178048565	0.4363376747439352	1.1680198285152534	0.05756538976459409	0.026906281652943453	1.3181164007959516	0.45667150686470404	0.028627969476756825	1.1489438848332656	0.3116053280759835	0.20074818929179986	1.106541364576923	0.18755322717911066	0.29263236407608917	1.1101913186395809	0.15865803038285553	0.30423715478707364	1.1080113796299522	0.14269215756433293	0.26824355495162183	1.0640765409551263	0.14778139461476833	
287	5.519230769230769	0.2646811037246455	0.8961443711470964	0.47567770074989685	0.29900676419515887	0.498853385768834	0.5102533996130489	0.2888990250361567	0.10120807871503376	0.5828303623173227	0.26913013912729683	0.09093969653607495	0.3668338679427576	0.3242960488897708	0.0736107442289104	0.4201734344639551	0.2709471791431037	0.060853108951300555	0.632168497208245	0.07330392121061338	0.8925478157574618	0.470764448729188	0.07597680495685603	0.48930604435452874	0.5091408223955242	0.07173672207572819	0.11963673601852218	0.5542133382244792	0.0708282729994362	0.06812895044107786	0.4056546189432536	0.03222314839935948	0.07980894944650635	0.4191878390632123	0.08911770490776076	0.06652692429994385	0.606638523858351	0.15739568089159878	1.3795563267397426	0.46964996527815567	0.1812285668411548	1.6357245256302841	0.3659221090549505	0.1895430082795989	1.4801800181321099	0.34686962208086786	0.2816999237917222	1.3169200639967433	0.5095851854485116	0.3328706802415487	1.1373827370732188	0.427104328614741	0.40790889604781067	1.1517735282416999	0.20815685427296643	0.4389073470532741	1.1845409204732689	0.07452165708710622	0.4438105873397267	1.1849545914488813	0.05868857966158661	0.43868675893294423	1.1486285901042907	0.06092894917770855	0.02644247045331525	1.3167050825817777	0.456724316047742	0.020470238899563512	1.1402789113753946	0.32529217526338394	0.19092709861357443	1.0794278077540798	0.195907990616975	0.2827721097396489	1.0719963027268915	0.1577621997604035	0.29103557594189555	1.0679151495277626	0.14560877856449675	0.2503167896600244	1.026745453190183	0.15378305217475602	
288	5.538461538461538	0.26449414485062683	0.8964249161174643	0.47594771919590556	0.2993663742490336	0.49860130914737977	0.5107348032116154	0.28939156997841375	0.10116711431141667	0.5825027156098685	0.2691569482570474	0.09013026969909048	0.36688536093673224	0.32506741092618696	0.07321528779626582	0.419520910435617	0.2710089813158129	0.06077054815911923	0.6322610116250623	0.0719486790830149	0.8926814270403379	0.4707972906157226	0.07554027579768789	0.48757414874505034	0.5103496091539659	0.0716658479809482	0.11969641677081785	0.5542574702501178	0.070845480044406	0.06814102105864885	0.4056551126244366	0.033111057736121066	0.07889685758390237	0.41918204364656314	0.0892713025542192	0.06763253606930146	0.6046931967442218	0.1570312392400288	1.3802452554036813	0.46935535819135343	0.17949621207196342	1.6369538132329664	0.3644235249966994	0.1883397294985772	1.4814574945983958	0.345008927867891	0.280237339376549	1.317167796325153	0.5074546909690839	0.3286316231167782	1.1418108096011252	0.40990675557796646	0.4129527549113216	1.1416273681740008	0.20584572859927386	0.45082153859273455	1.171161731928474	0.07330596021866234	0.45133267293314083	1.1687529209675975	0.06397033832463156	0.4460884009663022	1.1309874232900567	0.07145021088695083	0.026234628274725447	1.3153345768319957	0.45667795513235043	0.011981189533598368	1.1330666122882764	0.3374563523953896	0.1779740170403824	1.0540266458843488	0.20624092327941462	0.26825297569035467	1.03740696108131	0.1589142268221887	0.27397958375592757	1.0298683078193407	0.14892389123225425	0.2288180371240161	0.9928681061755404	0.16172966628573565	
289	5.557692307692308	0.26431572099378864	0.8971139032830755	0.47576119364663466	0.2995979308789994	0.49849564678485836	0.511112276533761	0.2900184320896079	0.10099131532534515	0.582800027859411	0.2692043971795314	0.08946961963466418	0.36690998088055987	0.3265758868652364	0.07328970773014173	0.4185164637876597	0.271065915616471	0.06067208383881445	0.6323441239962618	0.07030380168823701	0.8930366791001294	0.4706503797868194	0.07491055205115041	0.48610020524576286	0.5115827564277493	0.07156741090117674	0.1196887404721412	0.5542554757384354	0.07097502446753187	0.06805695004582005	0.4059873032971359	0.03406747818309816	0.077920298554063	0.4191644173005863	0.08939168471349018	0.06873406486682217	0.6026793827524315	0.15676914276698048	1.3812855650073106	0.46887879800774007	0.17763453806368493	1.6381564873927892	0.3646096046959237	0.18692172217057618	1.4836919006396125	0.34388005131933613	0.2789703561439361	1.3178847509276435	0.5031146400342069	0.32751205191449995	1.1451939613472508	0.3913789313192641	0.42215935339380267	1.1318466431153524	0.2089929931304701	0.4668325272446335	1.1595532089826817	0.08039737358181316	0.4651259994331558	1.1548529694587226	0.07380522860899585	0.4580060296335715	1.117398744360713	0.08719380144530671	0.025701563075944876	1.3138963167915825	0.45657237862202915	0.0021815669472676257	1.1261323621683406	0.34995748111865443	0.16119504610470203	1.0295917535572672	0.21846904591413813	0.24899006224860448	1.0041465127068996	0.16627233964925078	0.2530423471011834	0.9931830298288652	0.15522782097165688	0.20409786214799303	0.9615106018206914	0.1719052249838805	
290	5.576923076923077	0.26409101368707494	0.8982238022088836	0.47505238306055597	0.29967575666017005	0.4985654261545267	0.5114107334348377	0.29075903320861524	0.10080473543508262	0.5837192050294161	0.26923237985761156	0.0889334681101056	0.36691646150532553	0.3283790267469584	0.07376036652641232	0.4170542087293026	0.27109843240723147	0.06053678361646036	0.6324085242976294	0.06841504829243679	0.8935984079461395	0.47032328296834164	0.07413532445712677	0.48501249302900096	0.5128082496624556	0.07144130248603546	0.11964943285007396	0.5542745672920453	0.07135777366476911	0.06810512954935365	0.405864854893815	0.03483125573148723	0.07703588253310864	0.41914278000729743	0.08952515857888807	0.07001448453550584	0.6005387813287045	0.15622632646885257	1.382577932148974	0.4681716031790643	0.17508286400376522	1.639303837416753	0.3675361741086916	0.1850048567571539	1.4867312287196799	0.34313235970682254	0.27800181093275894	1.3191858836502075	0.4964549334354091	0.32984688939297035	1.1473037895100684	0.37432727197310967	0.43446172862114896	1.1240921269397361	0.2141790091716214	0.4861977465154061	1.1510069619882835	0.0923549217293106	0.4848219512168397	1.1451914566829504	0.0853202923272298	0.4739844223168862	1.108459084977568	0.10694419155050983	0.024481571924515486	1.3123943734518875	0.45642004166499855	-0.008877830822713113	1.1191730644545983	0.3637722840704538	0.14117837706309813	1.0068322763859419	0.23233178356208362	0.22564798260188795	0.9707642055722272	0.1828638418526713	0.2279372621135641	0.9579158736607659	0.16792620623130433	0.1772975675340299	0.932965389341127	0.1846241928421607	
291	5.596153846153846	0.26377862285839654	0.8997766201185132	0.4737378480170315	0.2996276721636322	0.4988692611037275	0.5116798074566444	0.29161084204531756	0.10085820862226333	0.5845965609252353	0.2692021053359045	0.08844286130183712	0.3669131800075319	0.33008046471161046	0.07459799436632174	0.41506493237296277	0.2711048154367378	0.06029824685306538	0.6324165183547906	0.06638895429500312	0.8943282203374987	0.46999204832510777	0.07330418699228244	0.4843939780548047	0.5140401973883515	0.07130005801413151	0.11961256725264899	0.5543333930428341	0.07203001892753937	0.06857193910990406	0.40453369587740545	0.035255112886260764	0.076324086431268	0.4191315136530618	0.08970492264513046	0.07138798290602541	0.5983775991627215	0.15506709626670895	1.3838358365088266	0.4672991646891296	0.17151544638758262	1.6403893769687201	0.3734368822948009	0.18250410430011002	1.4900491132327864	0.34205221166482935	0.27706356041812347	1.3210433960141785	0.4880807268884882	0.33548897639583447	1.148325724109465	0.36125141478176176	0.44819337701141027	1.120470559045225	0.21727465492293596	0.508087969004539	1.1473237849503017	0.1052964951488626	0.509079295208692	1.1409320826043607	0.0967912322277199	0.49307912446186575	1.1039057381185755	0.1281929033524562	0.022600624298020497	1.310987815455652	0.4561414785734118	-0.020341465866201253	1.1123984077209517	0.37907624071403856	0.11943211475830762	0.9863736342879782	0.24781577502156665	0.1999771583570844	0.9382124346313513	0.20721289033162194	0.1993899248441269	0.92474621418253	0.18762813411423687	0.1497349191804091	0.9074141707333323	0.20033002062654598	
